<?xml version="1.0" encoding="UTF-8" standalone="no"?>
<svg
   viewBox="0 0 512 448"
   version="1.1"
   id="svg1"
   xml:space="preserve"
   width="512"
   height="448"
   xmlns="http://www.w3.org/2000/svg"
   xmlns:svg="http://www.w3.org/2000/svg"><defs
     id="defs1" /><!--! Font Awesome Pro 6.5.2 by @fontawesome - https://fontawesome.com License - https://fontawesome.com/license (Commercial License) Copyright 2024 Fonticons, Inc. --><path
     fill="#b3b1b1"
     d="M 48,48 V 96 H 464 V 48 Z M 32,0 h 448 c 17.7,0 32,14.3 32,32 v 80 c 0,17.7 -14.3,32 -32,32 H 32 C 14.3,144 0,129.7 0,112 V 32 C 0,14.3 14.3,0 32,0 Z m 0,384 V 176 h 48 v 208 c 0,8.8 7.2,16 16,16 h 320 c 8.8,0 16,-7.2 16,-16 V 176 h 48 v 208 c 0,35.3 -28.7,64 -64,64 H 96 C 60.7,448 32,419.3 32,384 Z"
     id="path1" /><path
     fill="#b3b1b1"
     d="m 243.7244,162.65589 c 6.7896,-6.45113 17.8159,-6.45113 24.60552,0 l 86.90687,82.57468 c 6.78961,6.45114 6.78961,16.9278 0,23.37895 -6.7896,6.45115 -17.81591,6.45115 -24.6055,0 l -57.24991,-54.44767 v 158.33692 c 0,9.13483 -7.76731,16.51494 -17.38138,16.51494 -9.61408,0 -17.38138,-7.38011 -17.38138,-16.51494 V 214.16185 l -57.24992,54.39606 c -6.78959,6.45115 -17.81591,6.45115 -24.6055,0 -6.7896,-6.45114 -6.7896,-16.92781 0,-23.37895 l 86.90688,-82.57467 z"
     id="path1-3"
     style="stroke-width:0.529456" /></svg>
